<?xml version="1.0" encoding="utf-8"?>
<!-- Generator: Adobe Illustrator 19.2.0, SVG Export Plug-In . SVG Version: 6.00 Build 0)  -->
<svg version="1.1" id="Capa_1" xmlns="http://www.w3.org/2000/svg" xmlns:xlink="http://www.w3.org/1999/xlink" x="0px" y="0px"
	 viewBox="0 0 512 512" style="enable-background:new 0 0 512 512;" xml:space="preserve">
<title>Soc_In_big</title>
<path d="M434.5,16H77.5C43.6,16,16,41,16,77.5v365.1c0,36.5,19.4,53.3,53.3,53.3h373.4c33.9,0,53.3-16.8,53.3-53.3V77.5
	C496,41,468.2,16,434.5,16z M345.1,256c0,49.2-39.9,89.1-89.1,89.1s-89.1-39.9-89.1-89.1c0-19.2,6.2-37.9,17.7-53.3h143
	C339,218.1,345.1,236.8,345.1,256L345.1,256z M442.7,415.9c0,14.7-12,26.7-26.6,26.7l0,0H96.1c-14.7,0-26.7-12-26.7-26.7l0,0V229.4
	c0-14.7,12-26.7,26.6-26.7l0,0h37.7c-29.5,67.5,1.4,146.1,68.9,175.5s146.1-1.4,175.5-68.9c14.7-33.9,14.7-72.5,0-106.6h37.7
	c14.7,0,26.7,12,26.7,26.7L442.7,415.9L442.7,415.9z M442.7,122.6c0,14.7-11.8,26.7-26.6,26.7l0,0h-26.7c-14.7,0-26.7-12-26.7-26.7
	V95.9c0-14.7,12-26.7,26.7-26.7h26.7c14.7,0,26.7,12,26.7,26.6l0,0L442.7,122.6L442.7,122.6z"/>
</svg>
