<?xml version="1.0" encoding="utf-8"?>
<!-- Generator: Adobe Illustrator 19.2.0, SVG Export Plug-In . SVG Version: 6.00 Build 0)  -->
<svg version="1.1" id="Capa_1" xmlns="http://www.w3.org/2000/svg" xmlns:xlink="http://www.w3.org/1999/xlink" x="0px" y="0px"
	 viewBox="0 0 512 512" style="enable-background:new 0 0 512 512;" xml:space="preserve">
<title>Soc_Vk_big</title>
<path d="M250.5,407h30.6c0,0,9.2-1.1,14-6.3c4.4-4.8,4.2-14,4.2-14s-0.6-42.8,18.5-49.1c18.7-6.2,42.9,41.3,68.5,59.8
	c19.3,13.9,34,10.9,34,10.9l68.3-1.1c0,0,35.8-2.3,18.7-31.6c-1.4-2.4-9.8-21.7-50.7-61.3c-42.9-41.4-37.2-34.8,14.6-106.7
	c31.5-43.7,44-70.5,40-81.8c-3.8-11-25-22.2-25-22.2h-76.8c0,0-3.3,9.8-47.3,87.7c-34.2,60.7-55.1,72.9-55.1,66.3v-77
	c0-58.9,0.3-66.6-25-72.9c-8.4-2.1-14.6-3.5-36-3.8c-27.6-0.3-47.3-0.3-67-0.3c-9.8,0-12.2,21.6-8.1,22c5.1,0.8,16.6,3.3,22.7,11.9
	c8,11.2,11,43,11,43v77c0,12.1-38.7-11.8-69.3-66.9c-15.7-28.2-33.1-61.3-33.1-61.3l-25.6-25.5H0l1.5,33c0,0,57.4,139.9,122.1,210.2
	C182.9,411.2,250.5,407,250.5,407z"/>
</svg>
