<?xml version="1.0" encoding="utf-8"?>
<!-- Generator: Adobe Illustrator 19.2.0, SVG Export Plug-In . SVG Version: 6.00 Build 0)  -->
<svg version="1.1" id="Capa_1" xmlns="http://www.w3.org/2000/svg" xmlns:xlink="http://www.w3.org/1999/xlink" x="0px" y="0px"
	 viewBox="0 0 512 512" style="enable-background:new 0 0 512 512;" xml:space="preserve">
<style type="text/css">
	.st0{fill:#1D1D1B;}
</style>
<title>Soc_Tw_big</title>
<path class="st0" d="M512,129.1c-18,7.8-37,12.9-56.5,15.3c20.5-12,35.9-31.1,43.3-53.6c-19.4,11.3-40.6,19.2-62.6,23.6
	c-18.6-19.5-44.7-30.6-71.9-30.6c-54.4,0-98.5,43.4-98.5,97c0,7.4,0.8,14.9,2.6,22.1c-78.9-3.8-152.6-40.5-203-101.3
	C56.7,116.2,52,133,52.2,150.3c0,32.4,16.5,62.9,43.8,80.7c-15.6-0.5-31-4.7-44.7-12.2c0,0.5,0,0.8,0,1.2c0,47,34,86.2,78.9,95.2
	c-14.6,3.8-29.8,4.4-44.5,1.7c12.5,38.4,48.9,66.5,92,67.4c-35,27-78,41.6-122.3,41.6c-7.8,0-15.6-0.5-23.5-1.4
	c45.1,28.5,97.6,43.7,151,43.7c181.1,0,280.2-147.7,280.2-275.7c0-4.2-0.2-8.3-0.2-12.5C482.1,165.5,498.8,148.5,512,129.1z"/>
</svg>
