<svg id="Layer_1" xmlns="http://www.w3.org/2000/svg" viewBox="0 0 2944 704"><style>.st0{fill:#ff8d00}.st1{fill:#56658a}</style><path class="st0" d="M576 64H64v128h192v448h128V192h192z"/><path class="st1" d="M1583.9 329.4c2 2.2 3.4 3.9 5 5.3 39.7 36.1 59.3 80.8 59 134.5-.3 68-42.8 135.1-112 160.3-18.4 6.7-37.5 10.3-57 10.4-76.4.2-275.6 0-275.6 0V64.1s165.9-.6 247 1c89.4 2.7 149.1 59.7 163.9 129.9 9.4 44.7 1.4 86.6-24 124.9-2 3-4.1 6.1-6.3 9.5zM1328 407.1v111.5s96.7-.3 141.7 0c18.6-.2 35.6-6.1 50.1-18.3 24.9-20.8 25.2-53.1.6-74.4-14.8-12.8-32.5-18.7-51.8-18.8-43.7-.2-140.6 0-140.6 0zm-2.1-121.1s86.9.4 126.1 0c18.9-.2 34.4-8.7 46-23.6 14.8-19 14-45.1-1.8-63.4-12.1-13.9-27.5-21.5-46.1-21.5-37.9-.1-119.8-.3-124.2 0-.1 36.1 0 108.5 0 108.5z"/><path class="st0" d="M864 56c-163.5 0-296 132.5-296 296s132.5 296 296 296 296-132.5 296-296S1027.5 56 864 56zm0 460.4c-90.8 0-164.4-73.6-164.4-164.4 0-90.8 73.6-164.4 164.4-164.4s164.4 73.6 164.4 164.4c0 90.8-73.6 164.4-164.4 164.4z"/><path class="st1" d="M1968 56c-163.5 0-296 132.5-296 296s132.5 296 296 296 296-132.5 296-296-132.5-296-296-296zm0 460.4c-90.8 0-164.4-73.6-164.4-164.4 0-90.8 73.6-164.4 164.4-164.4s164.4 73.6 164.4 164.4c0 90.8-73.6 164.4-164.4 164.4z"/><path class="st1" d="M2863.6 137.1l-92.9-92.9-214.9 214.9-214.9-214.9-92.9 92.9L2462.9 352 2248 566.9l92.9 92.9 214.9-214.9 214.9 214.9 92.9-92.9L2648.7 352z"/></svg>