<?xml version="1.0" encoding="utf-8"?>
<!-- Generator: Adobe Illustrator 19.2.1, SVG Export Plug-In . SVG Version: 6.00 Build 0)  -->
<svg version="1.1" id="Layer_1" xmlns="http://www.w3.org/2000/svg" xmlns:xlink="http://www.w3.org/1999/xlink" x="0px" y="0px"
	 viewBox="0 0 2944 704" style="enable-background:new 0 0 2944 704;" xml:space="preserve">
<style type="text/css">
	.st0{fill:#FF8D00;}
	.st1{fill:#56658A;}
</style>
<g>
	<polygon class="st0" points="576,64 64,64 64,192 256,192 256,640 384,640 384,192 576,192 	"/>
	<path class="st1" d="M1583.9,329.4c2,2.2,3.4,3.9,5,5.3c39.7,36.1,59.3,80.8,59,134.5c-0.3,68-42.8,135.1-112,160.3
		c-18.4,6.7-37.5,10.3-57,10.4c-76.4,0.2-275.6,0-275.6,0V64.1c0,0,165.9-0.6,247,1c89.4,2.7,149.1,59.7,163.9,129.9
		c9.4,44.7,1.4,86.6-24,124.9C1588.2,322.9,1586.1,326,1583.9,329.4z M1328,407.1v111.5c0,0,96.7-0.3,141.7,0
		c18.6-0.2,35.6-6.1,50.1-18.3c24.9-20.8,25.2-53.1,0.6-74.4c-14.8-12.8-32.5-18.7-51.8-18.8C1424.9,406.9,1328,407.1,1328,407.1z
		 M1325.9,286c0,0,86.9,0.4,126.1,0c18.9-0.2,34.4-8.7,46-23.6c14.8-19,14-45.1-1.8-63.4c-12.1-13.9-27.5-21.5-46.1-21.5
		c-37.9-0.1-119.8-0.3-124.2,0C1325.8,213.6,1325.9,286,1325.9,286z"/>
	<path class="st0" d="M864,56c-163.5,0-296,132.5-296,296s132.5,296,296,296s296-132.5,296-296S1027.5,56,864,56z M864,516.4
		c-90.8,0-164.4-73.6-164.4-164.4c0-90.8,73.6-164.4,164.4-164.4s164.4,73.6,164.4,164.4C1028.4,442.8,954.8,516.4,864,516.4z"/>
	<path class="st1" d="M1968,56c-163.5,0-296,132.5-296,296s132.5,296,296,296s296-132.5,296-296S2131.5,56,1968,56z M1968,516.4
		c-90.8,0-164.4-73.6-164.4-164.4c0-90.8,73.6-164.4,164.4-164.4s164.4,73.6,164.4,164.4C2132.4,442.8,2058.8,516.4,1968,516.4z"/>
	<polygon class="st1" points="2863.6,137.1 2770.7,44.2 2555.8,259.1 2340.9,44.2 2248,137.1 2462.9,352 2248,566.9 2340.9,659.8 
		2555.8,444.9 2770.7,659.8 2863.6,566.9 2648.7,352 	"/>
</g>
</svg>
