<?xml version="1.0" encoding="iso-8859-1"?>
<!-- Generator: Adobe Illustrator 19.0.0, SVG Export Plug-In . SVG Version: 6.00 Build 0)  -->
<svg version="1.1" id="Layer_1" xmlns="http://www.w3.org/2000/svg" xmlns:xlink="http://www.w3.org/1999/xlink" x="0px" y="0px"
	 viewBox="0 0 512 512" style="enable-background:new 0 0 512 512;" xml:space="preserve">
<path style="fill:#2D527C;" d="M47.073,512c-12.348,0-24.28-4.856-33.242-13.817C2.43,486.781-2.327,470.568,1.109,454.813
	L84.886,70.61c3.936-18.057,18.083-32.198,36.04-36.021c100.061-21.309,202.922,9.1,275.161,81.339
	c72.24,72.24,102.645,175.101,81.33,275.153c-3.826,17.953-17.966,32.099-36.021,36.035l-58.211,12.693
	c-8.356,1.823-16.606-3.475-18.429-11.831c-1.823-8.356,3.475-16.608,11.831-18.429l58.209-12.693
	c6.194-1.35,11.035-6.152,12.329-12.23c19.119-89.748-8.148-182.01-72.94-246.8c-64.787-64.79-157.054-92.055-246.81-72.949
	c-6.079,1.296-10.88,6.135-12.23,12.329L31.368,461.411c-1.195,5.485,0.395,10.904,4.362,14.872
	c3.969,3.969,9.39,5.564,14.872,4.362l248.559-54.211c8.356-1.819,16.606,3.473,18.429,11.831
	c1.823,8.356-3.475,16.608-11.83,18.429L57.2,510.905C53.829,511.639,50.435,512,47.073,512z"/>
<path style="fill:#CEE8FA;" d="M98.062,86.313c90.341-31.831,195.065-11.69,267.194,60.439s92.27,176.853,60.439,267.194
	l41.371-8.043c12.879-2.504,22.975-12.678,25.14-25.617c16.129-96.443-12.927-199.042-87.185-273.3S228.166,3.673,131.723,19.802
	c-12.941,2.165-23.114,12.261-25.617,25.14L98.062,86.313z"/>
<g>
	<path style="fill:#2D527C;" d="M425.695,429.431c-4.453,0-8.749-1.923-11.722-5.369c-3.628-4.203-4.728-10.026-2.882-15.262
		c30.755-87.287,8.466-185.85-56.785-251.097c-45.479-45.479-106.05-70.525-170.557-70.525c-27.566,0-54.665,4.622-80.542,13.74
		c-5.235,1.844-11.059,0.746-15.264-2.882c-4.203-3.628-6.143-9.227-5.084-14.678l8.043-41.373
		c3.735-19.201,19.112-34.254,38.263-37.456C147.141,1.524,165.507,0,183.751,0c87.818,0,170.288,34.106,232.22,96.038
		c74.82,74.82,109.029,182.038,91.51,286.804c-3.204,19.153-18.257,34.531-37.456,38.265l-41.373,8.041
		C427.667,429.338,426.677,429.431,425.695,429.431z M183.751,56.209c72.779,0,141.127,28.268,192.456,79.594
		c36.966,36.964,62.342,83.453,73.389,134.439c8.881,40.986,8.232,83.239-1.751,123.624l16.268-3.162
		c6.586-1.281,11.739-6.493,12.822-12.972c15.874-94.918-15.102-192.038-82.861-259.795C337.99,61.855,263.297,30.97,183.751,30.97
		c-16.538,0-33.184,1.381-49.474,4.105c-6.477,1.082-11.691,6.236-12.972,12.822l-3.162,16.267
		C139.538,58.877,161.512,56.209,183.751,56.209z"/>
	<path style="fill:#2D527C;" d="M133.273,493.952c-5.581,0-10.843-3.027-13.594-8.08c-18.896-34.692-12.561-78.456,15.404-106.425
		c16.964-16.962,39.518-26.304,63.507-26.304s46.543,9.342,63.507,26.304c18.359,18.359,27.865,43.751,26.08,69.664
		c-0.474,6.868-5.423,12.599-12.149,14.065l-139.45,30.42C135.475,493.836,134.368,493.952,133.273,493.952z M198.59,384.115
		c-15.717,0-30.493,6.12-41.608,17.235c-15.609,15.609-20.937,38.719-14.528,59.266l114.513-24.977
		c-1.607-12.874-7.445-24.966-16.769-34.29C229.083,390.234,214.307,384.115,198.59,384.115z"/>
	<path style="fill:#2D527C;" d="M62.66,324.372c-5.564,0-11.149-0.548-16.6-1.626c-4.08-0.807-7.663-3.221-9.944-6.699
		c-2.281-3.478-3.066-7.727-2.18-11.79l29.651-135.972c0.884-4.054,3.359-7.583,6.869-9.797c3.512-2.214,7.763-2.927,11.801-1.977
		c15.352,3.605,29.387,11.429,40.586,22.628c33.17,33.172,33.17,87.143,0,120.313C106.772,315.521,85.4,324.372,62.66,324.372z
		 M89.987,192.577l-21.93,100.562c12.427-1.222,23.947-6.648,32.885-15.586c21.097-21.094,21.095-55.419,0-76.514
		C97.642,197.738,93.958,194.9,89.987,192.577z"/>
</g>
<circle style="fill:#CEE8FA;" cx="265.768" cy="224.562" r="61.94"/>
<path style="fill:#2D527C;" d="M265.768,301.987c-42.692,0-77.425-34.733-77.425-77.425s34.733-77.425,77.425-77.425
	s77.425,34.733,77.425,77.425S308.462,301.987,265.768,301.987z M265.768,178.108c-25.615,0-46.455,20.84-46.455,46.455
	s20.84,46.455,46.455,46.455s46.455-20.84,46.455-46.455S291.384,178.108,265.768,178.108z"/>
<g>
</g>
<g>
</g>
<g>
</g>
<g>
</g>
<g>
</g>
<g>
</g>
<g>
</g>
<g>
</g>
<g>
</g>
<g>
</g>
<g>
</g>
<g>
</g>
<g>
</g>
<g>
</g>
<g>
</g>
</svg>
