<svg xmlns="http://www.w3.org/2000/svg" viewBox="0 0 512 512"><path d="M47.073 512c-12.348 0-24.28-4.856-33.242-13.817-11.401-11.402-16.158-27.615-12.722-43.37L84.886 70.61c3.936-18.057 18.083-32.198 36.04-36.021 100.061-21.309 202.922 9.1 275.161 81.339 72.24 72.24 102.645 175.101 81.33 275.153-3.826 17.953-17.966 32.099-36.021 36.035l-58.211 12.693c-8.356 1.823-16.606-3.475-18.429-11.831-1.823-8.356 3.475-16.608 11.831-18.429l58.209-12.693c6.194-1.35 11.035-6.152 12.329-12.23 19.119-89.748-8.148-182.01-72.94-246.8-64.787-64.79-157.054-92.055-246.81-72.949-6.079 1.296-10.88 6.135-12.23 12.329L31.368 461.411c-1.195 5.485.395 10.904 4.362 14.872 3.969 3.969 9.39 5.564 14.872 4.362l248.559-54.211c8.356-1.819 16.606 3.473 18.429 11.831 1.823 8.356-3.475 16.608-11.83 18.429L57.2 510.905A47.59 47.59 0 0 1 47.073 512z" fill="#2d527c"/><path d="M98.062 86.313c90.341-31.831 195.065-11.69 267.194 60.439s92.27 176.853 60.439 267.194l41.371-8.043c12.879-2.504 22.975-12.678 25.14-25.617 16.129-96.443-12.927-199.042-87.185-273.3S228.166 3.673 131.723 19.802c-12.941 2.165-23.114 12.261-25.617 25.14l-8.044 41.371z" fill="#cee8fa"/><g fill="#2d527c"><path d="M425.695 429.431a15.481 15.481 0 0 1-11.722-5.369 15.48 15.48 0 0 1-2.882-15.262c30.755-87.287 8.466-185.85-56.785-251.097-45.479-45.479-106.05-70.525-170.557-70.525-27.566 0-54.665 4.622-80.542 13.74a15.487 15.487 0 0 1-20.348-17.56l8.043-41.373c3.735-19.201 19.112-34.254 38.263-37.456A332.05 332.05 0 0 1 183.751 0c87.818 0 170.288 34.106 232.22 96.038 74.82 74.82 109.029 182.038 91.51 286.804-3.204 19.153-18.257 34.531-37.456 38.265l-41.373 8.041a15.61 15.61 0 0 1-2.957.283zM183.751 56.209c72.779 0 141.127 28.268 192.456 79.594 36.966 36.964 62.342 83.453 73.389 134.439 8.881 40.986 8.232 83.239-1.751 123.624l16.268-3.162c6.586-1.281 11.739-6.493 12.822-12.972 15.874-94.918-15.102-192.038-82.861-259.795C337.99 61.855 263.297 30.97 183.751 30.97a300.862 300.862 0 0 0-49.474 4.105c-6.477 1.082-11.691 6.236-12.972 12.822l-3.162 16.267c21.395-5.287 43.369-7.955 65.608-7.955zM133.273 493.952a15.483 15.483 0 0 1-13.594-8.08c-18.896-34.692-12.561-78.456 15.404-106.425 16.964-16.962 39.518-26.304 63.507-26.304s46.543 9.342 63.507 26.304a89.765 89.765 0 0 1 26.08 69.664 15.485 15.485 0 0 1-12.149 14.065l-139.45 30.42c-1.103.24-2.21.356-3.305.356zm65.317-109.837c-15.717 0-30.493 6.12-41.608 17.235-15.609 15.609-20.937 38.719-14.528 59.266l114.513-24.977a58.783 58.783 0 0 0-16.769-34.29c-11.115-11.115-25.891-17.234-41.608-17.234zM62.66 324.372a85.761 85.761 0 0 1-16.6-1.626 15.484 15.484 0 0 1-12.124-18.489l29.651-135.972a15.484 15.484 0 0 1 18.67-11.774c15.352 3.605 29.387 11.429 40.586 22.628 33.17 33.172 33.17 87.143 0 120.313-16.071 16.069-37.443 24.92-60.183 24.92zm27.327-131.795l-21.93 100.562c12.427-1.222 23.947-6.648 32.885-15.586 21.097-21.094 21.095-55.419 0-76.514a54.16 54.16 0 0 0-10.955-8.462z"/></g><circle cx="265.768" cy="224.562" r="61.94" fill="#cee8fa"/><path d="M265.768 301.987c-42.692 0-77.425-34.733-77.425-77.425s34.733-77.425 77.425-77.425 77.425 34.733 77.425 77.425-34.731 77.425-77.425 77.425zm0-123.879c-25.615 0-46.455 20.84-46.455 46.455s20.84 46.455 46.455 46.455 46.455-20.84 46.455-46.455-20.839-46.455-46.455-46.455z" fill="#2d527c"/></svg>